<svg width="460" height="75" viewBox="0 0 460 75" fill="none" xmlns="http://www.w3.org/2000/svg">
<path d="M173.467 32.9198C170.704 32.9855 168.043 33.9812 165.915 35.746L165.194 33.4558H164.356C163.656 33.4519 162.962 33.5869 162.315 33.8529C161.667 34.119 161.079 34.5108 160.584 35.0056C160.09 35.5005 159.698 36.0886 159.432 36.7359C159.166 37.3832 159.031 38.0769 159.035 38.7767V55.9772H160.984C162.387 55.9772 163.733 55.4197 164.725 54.4273C165.718 53.4349 166.275 52.089 166.275 50.6855V40.7648C167.579 39.738 169.177 39.1542 170.836 39.0983C173.497 39.0983 173.877 41.0961 173.877 43.4253V55.9772H175.767C177.171 55.9772 178.517 55.4197 179.509 54.4273C180.501 53.4349 181.059 52.089 181.059 50.6855V41.2813C181.03 34.3426 177.083 32.9198 173.467 32.9198ZM132.537 32.9198C130.023 32.9198 128.22 34.2062 126.456 35.7752L125.696 33.485H124.926C124.232 33.485 123.544 33.622 122.902 33.888C122.261 34.1541 121.678 34.544 121.188 35.0355C120.697 35.527 120.308 36.1105 120.043 36.7524C119.778 37.3944 119.643 38.0823 119.644 38.7767V55.9772H121.535C122.234 55.9837 122.927 55.8516 123.575 55.5885C124.222 55.3255 124.811 54.9367 125.308 54.4447C125.804 53.9526 126.199 53.3671 126.468 52.7219C126.737 52.0767 126.875 51.3846 126.875 50.6855V40.5212C127.795 39.6519 128.984 39.1222 130.245 39.0195C131.506 38.9167 132.765 39.247 133.814 39.9559L136.338 34.1087C135.233 33.3403 133.921 32.9256 132.576 32.9198H132.537ZM109.333 44.8286V49.75C107.893 50.2303 106.379 50.4546 104.86 50.4127C98.6331 50.4127 95.2125 46.4171 95.2125 40.5699C95.2125 34.5375 98.828 30.347 105.932 30.347C108.087 30.3493 110.226 30.7184 112.257 31.4385L114.693 25.7473C111.703 24.7803 108.578 24.2967 105.435 24.3147C94.5498 24.3147 87.5137 31.497 87.5137 40.95C87.5137 49.7987 93.5948 56.4548 104.529 56.4548C108.715 56.4927 112.856 55.5971 116.652 53.8333V39.5466H114.703C114.002 39.535 113.306 39.663 112.655 39.9232C112.004 40.1835 111.411 40.5707 110.911 41.0623C110.412 41.554 110.015 42.1402 109.744 42.7868C109.473 43.4334 109.333 44.1275 109.333 44.8286ZM198.318 26.9069V33.066C197.483 32.9729 196.644 32.9241 195.804 32.9198C188.144 32.9198 182.969 37.9094 182.969 44.8968C182.969 52.2155 188.621 56.4548 196.515 56.4548C199.6 56.4964 202.66 55.8957 205.5 54.6909V21.6152H203.61C202.208 21.6178 200.864 22.1765 199.874 23.1686C198.884 24.1607 198.328 25.5052 198.328 26.9069H198.318ZM198.318 50.3639C197.633 50.536 196.929 50.6179 196.223 50.6076C192.948 50.6076 190.288 48.6585 190.288 44.7604C190.288 40.8622 192.568 38.728 196.135 38.728C196.849 38.722 197.562 38.7676 198.269 38.8645L198.318 50.3639ZM146.239 32.9198C143.115 32.9075 140.031 33.6144 137.225 34.9858L139.174 39.6246C140.943 38.732 142.893 38.2585 144.875 38.2408C147.301 38.2408 148.821 39.0983 148.821 41.1644V41.3982L145.255 41.5444C143.199 41.5559 141.171 42.0253 139.32 42.9185C138.152 43.4472 137.169 44.3137 136.499 45.4064C135.828 46.4991 135.501 47.7676 135.558 49.0483C135.558 53.3752 138.794 56.4255 143.208 56.4255C145.526 56.4593 147.77 55.6091 149.484 54.0477L150.459 55.9967H151.55C152.131 55.9967 152.707 55.8823 153.243 55.6599C153.78 55.4376 154.268 55.1117 154.679 54.7009C155.09 54.29 155.415 53.8023 155.638 53.2655C155.86 52.7287 155.975 52.1534 155.975 51.5723V41.4762C156.033 36.0091 153.187 32.9198 146.239 32.9198ZM148.851 50.13C147.85 50.6835 146.72 50.9626 145.576 50.9389C143.861 50.9389 142.77 50.1788 142.77 48.6098C142.735 48.2265 142.808 47.8413 142.981 47.4971C143.153 47.1529 143.417 46.8633 143.744 46.6607C144.567 46.2387 145.48 46.0246 146.405 46.037L148.831 45.9396L148.851 50.13Z" fill="#1D1D1D"/>
<path d="M284.593 23.5059C283.909 23.5471 283.266 23.8479 282.797 24.3469C282.327 24.8459 282.065 25.5054 282.065 26.1907C282.065 26.876 282.327 27.5355 282.797 28.0345C283.266 28.5335 283.909 28.8343 284.593 28.8755C284.954 28.8847 285.312 28.8212 285.648 28.689C285.983 28.5567 286.289 28.3582 286.546 28.1055C286.803 27.8527 287.007 27.5508 287.146 27.2177C287.284 26.8845 287.354 26.527 287.351 26.1663C287.357 25.807 287.289 25.4503 287.151 25.1185C287.013 24.7866 286.808 24.4866 286.55 24.2371C286.291 23.9876 285.984 23.7939 285.647 23.6681C285.311 23.5424 284.952 23.4871 284.593 23.5059ZM296.648 52.9757C295.176 52.9757 294.368 52.1279 294.368 50.1301V36.8667H297.642C298.322 36.8674 298.986 36.6541 299.538 36.2572C300.091 35.8602 300.505 35.2995 300.722 34.6545L301.121 33.4851H294.368V27.0239L293.871 27.1799C292.802 27.5207 291.869 28.1925 291.207 29.0981C290.545 30.0037 290.187 31.0963 290.187 32.2182V50.9389C290.187 54.457 292.224 56.4548 295.703 56.4548C297.811 56.4634 299.876 55.8498 301.638 54.6909L300.263 51.7673C299.195 52.5002 297.942 52.9189 296.648 52.9757ZM320.807 40.7648C320.807 35.3464 317.581 32.9686 312.494 32.9686C309.706 32.9679 306.967 33.7006 304.551 35.0931L305.838 38.1044C307.678 36.9597 309.8 36.3491 311.968 36.3405C314.677 36.3405 316.626 37.7243 316.626 40.9013V42.0902L312.445 42.2364C310.499 42.2231 308.572 42.6113 306.783 43.3766C305.611 43.8925 304.621 44.7495 303.944 45.8359C303.266 46.9224 302.931 48.1878 302.982 49.4674C302.982 53.7846 306.072 56.5035 310.213 56.5035C312.743 56.4495 315.149 55.3988 316.908 53.5799L317.62 56.0065C318.057 56.0106 318.49 55.9263 318.894 55.7589C319.297 55.5914 319.663 55.3442 319.969 55.032C320.271 54.7144 320.507 54.3396 320.662 53.9296C320.818 53.5196 320.89 53.0826 320.875 52.6444C320.826 51.6698 320.807 50.4614 320.807 48.9996V40.7648ZM316.626 50.4614C315.931 51.2307 315.089 51.8536 314.151 52.2937C313.212 52.7338 312.195 52.9822 311.159 53.0244C310.636 53.0655 310.111 52.9928 309.62 52.8114C309.128 52.6301 308.682 52.3443 308.311 51.9738C307.941 51.6033 307.655 51.1569 307.474 50.6653C307.292 50.1737 307.22 49.6487 307.261 49.1263C307.229 48.4837 307.378 47.845 307.689 47.282C308.001 46.7191 308.463 46.2542 309.025 45.9396C310.249 45.3878 311.58 45.1116 312.923 45.1307L316.587 44.9943L316.626 50.4614ZM331.341 52.313C330.88 52.4762 330.397 52.5714 329.909 52.5956C328.769 52.5956 328.242 52.0791 328.242 50.364V22.1025C327.133 22.1025 326.07 22.543 325.286 23.327C324.502 24.1111 324.062 25.1745 324.062 26.2833V51.5529C324.062 54.5447 325.582 56.2599 328.72 56.2599C329.907 56.2522 331.083 56.0276 332.189 55.5972L331.341 52.313ZM228.674 52.8393C221.775 52.8393 217.448 47.8009 217.448 40.4725C217.448 33.6507 221.823 27.979 228.957 27.979C231.194 27.96 233.408 28.4254 235.447 29.3433L236.753 26.0591C234.289 24.8934 231.585 24.3226 228.859 24.3927C219.348 24.3927 212.984 31.614 212.984 40.6966C212.984 49.7793 218.588 56.484 228.197 56.484C231.397 56.4956 234.549 55.7084 237.367 54.1939L236.178 50.822C233.894 52.1331 231.308 52.8282 228.674 52.8393ZM282.498 37.6951V55.9773C283.048 55.9773 283.592 55.8688 284.1 55.6581C284.608 55.4474 285.069 55.1386 285.457 54.7493C285.846 54.3601 286.154 53.898 286.363 53.3897C286.573 52.8813 286.68 52.3366 286.679 51.7868V33.4851C286.127 33.4864 285.582 33.5963 285.073 33.8087C284.565 34.0211 284.103 34.3317 283.715 34.7228C283.326 35.1138 283.019 35.5777 282.81 36.0877C282.601 36.5977 282.495 37.1439 282.498 37.6951ZM257.16 40.7843C257.16 35.3659 253.924 32.9881 248.837 32.9881C246.056 32.9662 243.317 33.6752 240.895 35.0443L242.172 38.0556C244.015 36.9093 246.141 36.2985 248.311 36.2917C251.02 36.2917 252.969 37.6756 252.969 40.8525V42.0415L248.789 42.1876C246.843 42.1733 244.915 42.5615 243.127 43.3278C241.955 43.8437 240.965 44.7008 240.287 45.7872C239.609 46.8736 239.274 48.1391 239.326 49.4187C239.326 53.7358 242.415 56.4548 246.547 56.4548C249.08 56.4023 251.49 55.3515 253.252 53.5312L253.963 55.9578C254.402 55.9582 254.836 55.8697 255.24 55.6976C255.644 55.5254 256.008 55.2732 256.311 54.9562C256.615 54.6392 256.851 54.264 257.005 53.8532C257.159 53.4425 257.228 53.0047 257.209 52.5664C257.209 51.5919 257.15 50.3835 257.15 48.9217L257.16 40.7843ZM252.979 50.4809C252.282 51.2477 251.44 51.8689 250.502 52.3087C249.563 52.7486 248.547 52.9985 247.512 53.0439C246.99 53.085 246.465 53.0123 245.973 52.8309C245.482 52.6495 245.035 52.3638 244.665 51.9933C244.294 51.6228 244.008 51.1763 243.827 50.6848C243.646 50.1932 243.573 49.6682 243.614 49.1458C243.582 48.5041 243.729 47.8661 244.038 47.3033C244.348 46.7404 244.809 46.275 245.368 45.9591C246.608 45.4027 247.956 45.1265 249.315 45.1502L252.979 45.0138V50.4809ZM268.182 32.9393C265.525 32.9578 262.889 33.4223 260.386 34.3134V68.6267C260.935 68.628 261.48 68.5208 261.989 68.3113C262.497 68.1017 262.959 67.794 263.348 67.4056C263.737 67.0173 264.046 66.556 264.257 66.0481C264.468 65.5402 264.576 64.9958 264.576 64.446V55.7336C265.788 56.2051 267.076 56.4495 268.377 56.4548C275.033 56.4548 279.837 51.7868 279.837 44.6142C279.876 37.2955 275.618 32.9198 268.182 32.9198V32.9393ZM268.182 52.9075C266.932 52.9307 265.696 52.6533 264.576 52.0986V36.9642C265.683 36.6159 266.836 36.4384 267.997 36.4379C272.372 36.4379 275.51 39.0009 275.51 44.5655C275.53 49.6038 273.055 52.888 268.182 52.888V52.9075Z" fill="#1D1D1D"/>
<path d="M409.43 23.5837C408.717 23.5837 408.033 23.867 407.528 24.3715C407.024 24.8759 406.74 25.56 406.74 26.2734C406.74 26.9867 407.024 27.6709 407.528 28.1753C408.033 28.6797 408.717 28.9631 409.43 28.9631C409.791 28.9722 410.149 28.9088 410.485 28.7765C410.82 28.6442 411.126 28.4458 411.383 28.193C411.64 27.9403 411.844 27.6383 411.983 27.3052C412.121 26.9721 412.191 26.6145 412.188 26.2539C412.195 25.8937 412.128 25.536 411.991 25.203C411.854 24.8699 411.649 24.5687 411.39 24.3182C411.132 24.0676 410.824 23.8731 410.487 23.7467C410.149 23.6204 409.79 23.5648 409.43 23.5837ZM399.032 53.0048C397.56 53.0048 396.751 52.1472 396.751 50.1494V36.886H400.026C400.705 36.8874 401.368 36.6756 401.92 36.2804C402.472 35.8853 402.887 35.3268 403.105 34.6836L403.505 33.5141H396.751V27.0432L396.254 27.2089C395.184 27.5471 394.249 28.2182 393.587 29.1244C392.924 30.0306 392.568 31.1247 392.571 32.2472V50.9583C392.571 54.4763 394.617 56.4741 398.086 56.4741C400.196 56.4879 402.262 55.8739 404.021 54.7102L402.647 51.7866C401.578 52.5202 400.327 52.942 399.032 53.0048ZM407.344 37.7534V56.0551C408.453 56.0551 409.517 55.6146 410.301 54.8306C411.085 54.0465 411.525 52.9831 411.525 51.8743V33.5726C410.416 33.5726 409.353 34.0131 408.569 34.7971C407.785 35.5812 407.344 36.6446 407.344 37.7534ZM377.962 32.7443C375.32 32.7665 372.701 33.2343 370.215 34.1281V68.4609C371.325 68.4609 372.389 68.0207 373.175 67.2369C373.96 66.4532 374.403 65.3898 374.405 64.2801V55.5678C375.618 56.037 376.906 56.2782 378.206 56.2792C384.862 56.2792 389.657 51.621 389.657 44.4386C389.657 37.2563 385.427 32.7443 377.962 32.7443ZM378.011 52.7124C376.761 52.7403 375.523 52.4627 374.405 51.9036V36.7886C375.513 36.4445 376.666 36.2671 377.826 36.2623C382.202 36.2623 385.34 38.8351 385.34 44.3899C385.34 49.3893 382.816 52.7124 378.011 52.7124Z" fill="#1D1D1D"/>
<path d="M20.65 14.413C17.2525 20.7364 16.4286 28.1276 18.3501 35.0439H18.8861C19.4262 30.9438 21.3045 27.1367 24.2296 24.2134C27.1547 21.29 30.963 19.414 35.0633 18.8764V1.73438C28.911 4.12352 23.8043 8.6156 20.65 14.413Z" fill="url(#paint0_linear)"/>
<path d="M19.5685 13.8286C22.9217 7.6194 28.4291 2.85023 35.0539 0.419049V0C25.942 0.587286 17.3557 4.47209 10.8992 10.9285C4.44279 17.385 0.557989 25.9713 -0.0292969 35.0832H17.064C15.1506 27.9387 16.0469 20.3327 19.5685 13.8286Z" fill="url(#paint1_linear)"/>
<path d="M20.65 14.4132C23.8061 8.61945 28.9126 4.13101 35.0634 1.74431V0.418945C28.285 2.90552 22.6808 7.83571 19.3506 14.2418C16.0204 20.648 15.2048 28.0675 17.0638 35.0441H18.3404C16.4218 28.1265 17.2493 20.7353 20.65 14.4132Z" fill="url(#paint2_linear)"/>
<path d="M60.6054 20.6405C54.2782 17.245 46.8861 16.4179 39.9648 18.3309V18.8766C44.064 19.4173 47.8705 21.2944 50.795 24.2171C53.7195 27.1399 55.5989 30.9453 56.1421 35.0441H73.2743C70.8879 28.8956 66.3991 23.7921 60.6054 20.6405Z" fill="url(#paint3_linear)"/>
<path d="M61.1706 19.5588C67.3804 22.9112 72.1497 28.4189 74.5801 35.0441H74.9992C74.4119 25.9322 70.5271 17.3459 64.0707 10.8895C57.6142 4.43302 49.0279 0.548224 39.916 -0.0390625V17.064C47.0593 15.1476 54.6652 16.0404 61.1706 19.5588Z" fill="url(#paint4_linear)"/>
<path d="M60.6054 20.6405C66.3991 23.7922 70.8879 28.8956 73.2743 35.0441H74.5899C72.1033 28.2645 67.1706 22.6603 60.7615 19.3332C54.3525 16.006 46.9307 15.1966 39.9551 17.064V18.3309C46.8793 16.4153 54.2755 17.2425 60.6054 20.6405Z" fill="url(#paint5_linear)"/>
<path d="M14.413 54.3592C20.7399 57.7556 28.1325 58.5828 35.0536 56.6688V56.1231C30.9533 55.5855 27.145 53.7094 24.2199 50.7861C21.2948 47.8628 19.4165 44.0556 18.8764 39.9556H1.73438C4.12107 46.107 8.61412 51.2113 14.413 54.3592Z" fill="url(#paint6_linear)"/>
<path d="M13.8286 55.4409C7.6234 52.0828 2.85573 46.5771 0.419049 39.9556H0C0.587286 49.0674 4.47209 57.6538 10.9285 64.1102C17.385 70.5666 25.9713 74.4514 35.0832 75.0387V57.9357C27.9398 59.85 20.3346 58.9573 13.8286 55.4409Z" fill="url(#paint7_linear)"/>
<path d="M14.4142 54.3592C8.61895 51.2095 4.12954 46.1054 1.74529 39.9556H0.419922C2.90844 46.7338 7.84143 52.3366 14.2499 55.6634C20.6584 58.9903 28.0793 59.8008 35.0548 57.9357V56.6688C28.1337 58.5828 20.7411 57.7556 14.4142 54.3592Z" fill="url(#paint8_linear)"/>
<path d="M57.1556 39.9462C58.6564 53.4825 51.9613 69.036 39.9551 74.4349V75.0002C49.0669 74.4129 57.6533 70.5281 64.1097 64.0716C70.5662 57.6152 74.4509 49.0289 75.0382 39.917L57.1556 39.9462Z" fill="url(#paint9_linear)"/>
<path d="M39.9551 73.0799C45.0032 70.6533 49.3203 66.1607 52.2829 60.2063C55.3941 53.9351 56.655 46.9075 55.9179 39.9458H39.9551V73.0799Z" fill="url(#paint10_linear)"/>
<path d="M57.1556 39.9458H55.9179C56.655 46.9075 55.3941 53.9351 52.2829 60.2063C49.3593 66.1607 45.0032 70.6533 39.9551 73.0799V74.4345C51.9613 69.0356 58.6564 53.4821 57.1556 39.9458Z" fill="url(#paint11_linear)"/>
<path d="M337.997 40.6183C337.96 38.2924 338.353 35.9797 339.156 33.7966C339.847 31.9434 340.916 30.2542 342.294 28.8363C343.612 27.5231 345.193 26.5035 346.933 25.8444C348.729 25.1812 350.632 24.851 352.546 24.8699C354.432 24.8527 356.306 25.1831 358.072 25.8444C359.787 26.5072 361.342 27.527 362.633 28.8363C364.005 30.2573 365.07 31.9459 365.761 33.7966C366.564 35.9797 366.958 38.2924 366.921 40.6183C366.958 42.9443 366.565 45.2572 365.761 47.4401C365.073 49.2921 364.007 50.9811 362.633 52.4004C361.344 53.7127 359.789 54.733 358.072 55.3923C356.307 56.0582 354.433 56.3887 352.546 56.3668C350.631 56.3894 348.728 56.0591 346.933 55.3923C345.191 54.7369 343.61 53.7169 342.294 52.4004C340.914 50.9841 339.845 49.2944 339.156 47.4401C338.352 45.2572 337.959 42.9443 337.997 40.6183ZM342.45 40.6183C342.429 42.3107 342.666 43.9964 343.152 45.6177C343.551 47.007 344.213 48.3071 345.101 49.4476C345.952 50.4831 347.029 51.3099 348.249 51.8645C349.563 52.4302 350.979 52.722 352.41 52.722C353.841 52.722 355.257 52.4302 356.571 51.8645C357.781 51.3061 358.847 50.4796 359.69 49.4476C360.578 48.3071 361.239 47.007 361.639 45.6177C362.574 42.3504 362.574 38.8863 361.639 35.619C361.242 34.2317 360.58 32.9345 359.69 31.7988C358.85 30.7616 357.783 29.9313 356.571 29.3722C355.257 28.8065 353.841 28.5147 352.41 28.5147C350.979 28.5147 349.563 28.8065 348.249 29.3722C347.045 29.9482 345.991 30.7955 345.169 31.8476C344.279 32.9832 343.617 34.2805 343.22 35.6677C342.717 37.27 342.457 38.9389 342.45 40.6183Z" fill="#1D1D1D"/>
<path d="M436.63 44.4581C436.651 46.1158 436.384 47.7645 435.841 49.3308C435.359 50.7163 434.611 51.9942 433.638 53.0925C432.692 54.1323 431.536 54.9594 430.247 55.5191C427.503 56.6491 424.424 56.6491 421.681 55.5191C420.382 54.9697 419.216 54.149 418.26 53.112C417.302 52.0245 416.567 50.7597 416.097 49.3893C415.049 46.2254 415.049 42.8079 416.097 39.644C416.551 38.2341 417.287 36.9311 418.26 35.814C419.197 34.7685 420.351 33.9404 421.642 33.3875C422.999 32.8216 424.454 32.5303 425.925 32.5303C427.395 32.5303 428.851 32.8216 430.208 33.3875C431.501 33.9402 432.659 34.7683 433.599 35.814C434.576 36.9129 435.325 38.1949 435.802 39.5855C436.357 41.1498 436.637 42.7983 436.63 44.4581ZM432.391 44.4581C432.51 42.2925 431.903 40.1491 430.666 38.3673C430.102 37.6641 429.386 37.0965 428.574 36.7065C427.761 36.3165 426.87 36.114 425.969 36.114C425.067 36.114 424.177 36.3165 423.364 36.7065C422.551 37.0965 421.836 37.6641 421.271 38.3673C420.035 40.1491 419.428 42.2925 419.546 44.4581C419.428 46.6238 420.035 48.7672 421.271 50.549C421.836 51.2522 422.551 51.8198 423.364 52.2098C424.177 52.5998 425.067 52.8023 425.969 52.8023C426.87 52.8023 427.761 52.5998 428.574 52.2098C429.386 51.8198 430.102 51.2522 430.666 50.549C431.903 48.7672 432.51 46.6238 432.391 44.4581Z" fill="#1D1D1D"/>
<path d="M456.024 56.0256C458.401 56.0256 459.092 54.2618 459.092 51.8937V40.1408C459.092 35.0928 456.997 32.7441 452.504 32.7441C450.207 32.7108 447.98 33.5421 446.267 35.0733L445.166 35.9308L444.979 33.1338H444.852C443.709 33.1338 442.612 33.5873 441.803 34.3949C440.994 35.2024 440.538 36.298 440.535 37.4413V56.0256H441.451C443.829 56.0256 444.61 54.2618 444.61 51.8937V39.7218L444.981 39.4294C446.452 38.2795 449.406 36.7883 451.092 36.7883C455.107 36.7883 455.107 40.6865 455.107 42.0898V56.0256H456.024Z" fill="#1D1D1D"/>
<defs>
<linearGradient id="paint0_linear" x1="17.3269" y1="18.3891" x2="35.0536" y2="18.3891" gradientUnits="userSpaceOnUse">
<stop stop-color="#7AC6BC"/>
<stop offset="1" stop-color="#3AB5A7"/>
</linearGradient>
<linearGradient id="paint1_linear" x1="17.522" y1="35.0442" x2="17.522" y2="0" gradientUnits="userSpaceOnUse">
<stop stop-color="#00A79E"/>
<stop offset="1" stop-color="#00998E"/>
</linearGradient>
<linearGradient id="paint2_linear" x1="25.5714" y1="35.0441" x2="25.5714" y2="0.418945" gradientUnits="userSpaceOnUse">
<stop stop-color="#B8DED8"/>
<stop offset="0.5" stop-color="#8BCCC3"/>
</linearGradient>
<linearGradient id="paint3_linear" x1="56.6099" y1="35.0441" x2="56.6099" y2="17.3173" gradientUnits="userSpaceOnUse">
<stop stop-color="#EF776A"/>
<stop offset="1" stop-color="#F39A83"/>
</linearGradient>
<linearGradient id="paint4_linear" x1="39.955" y1="17.522" x2="74.9992" y2="17.522" gradientUnits="userSpaceOnUse">
<stop stop-color="#E84136"/>
<stop offset="1" stop-color="#E4051F"/>
</linearGradient>
<linearGradient id="paint5_linear" x1="39.9551" y1="25.5619" x2="74.5802" y2="25.5619" gradientUnits="userSpaceOnUse">
<stop stop-color="#F9C5B4"/>
<stop offset="0.5" stop-color="#F5A58F"/>
</linearGradient>
<linearGradient id="paint6_linear" x1="18.3891" y1="57.6823" x2="18.3891" y2="39.9556" gradientUnits="userSpaceOnUse">
<stop stop-color="#F39A83"/>
<stop offset="1" stop-color="#EF776A"/>
</linearGradient>
<linearGradient id="paint7_linear" x1="0" y1="57.4777" x2="35.0539" y2="57.4777" gradientUnits="userSpaceOnUse">
<stop stop-color="#E4051F"/>
<stop offset="1" stop-color="#E84136"/>
</linearGradient>
<linearGradient id="paint8_linear" x1="0.419922" y1="49.4378" x2="35.0548" y2="49.4378" gradientUnits="userSpaceOnUse">
<stop offset="0.5" stop-color="#F5A58F"/>
<stop offset="1" stop-color="#F9C5B4"/>
</linearGradient>
<linearGradient id="paint9_linear" x1="57.4772" y1="75.0002" x2="57.4772" y2="39.9462" gradientUnits="userSpaceOnUse">
<stop stop-color="#00998E"/>
<stop offset="1" stop-color="#00A79E"/>
</linearGradient>
<linearGradient id="paint10_linear" x1="39.9551" y1="56.5128" x2="56.1421" y2="56.5128" gradientUnits="userSpaceOnUse">
<stop stop-color="#3AB5A7"/>
<stop offset="1" stop-color="#7AC6BC"/>
</linearGradient>
<linearGradient id="paint11_linear" x1="48.6577" y1="74.4345" x2="48.6577" y2="39.9458" gradientUnits="userSpaceOnUse">
<stop offset="0.5" stop-color="#8BCCC3"/>
<stop offset="1" stop-color="#B8DED8"/>
</linearGradient>
</defs>
</svg>
