<svg width="34" height="33" viewBox="0 0 34 33" fill="none" xmlns="http://www.w3.org/2000/svg">
<path d="M9.73796 6.71601C8.26882 9.41074 7.89104 12.6444 8.73055 15.5879H8.85648H8.9824C9.44413 11.9811 12.3404 9.12054 16.0343 8.62305V1.24365C13.3478 2.28008 11.0812 4.22858 9.73796 6.71601Z" fill="url(#paint0_linear)"/>
<path d="M9.27685 6.46741C10.746 3.77268 13.1386 1.74128 16.0349 0.704845V0.62193V0.497559C7.80771 1.0365 1.30154 7.50384 0.755859 15.588H8.18549C7.34598 12.5202 7.72376 9.24505 9.27685 6.46741Z" fill="url(#paint1_linear)"/>
<path d="M9.73805 6.7159C11.0813 4.22846 13.3479 2.27997 15.9924 1.28499V0.70459C13.138 1.74102 10.7035 3.77243 9.23434 6.46715C7.72323 9.24479 7.30348 12.5199 8.14299 15.5878H8.68867C7.89113 12.6443 8.26891 9.41062 9.73805 6.7159Z" fill="url(#paint2_linear)"/>
<path d="M27.1155 9.36951C24.3871 7.91851 21.1131 7.54539 18.1328 8.37454V8.49891V8.62328C21.7847 9.07931 24.681 11.9399 25.1847 15.5881H32.6563C31.6069 12.9348 29.634 10.7376 27.1155 9.36951Z" fill="url(#paint3_linear)"/>
<path d="M27.3674 8.91339C30.0958 10.3644 32.1526 12.7275 33.2019 15.588H33.2859H33.4118C32.8661 7.50384 26.318 1.0365 18.1328 0.497559V7.8355C21.239 7.04781 24.555 7.42093 27.3674 8.91339Z" fill="url(#paint4_linear)"/>
<path d="M27.1155 9.36935C29.634 10.696 31.6069 12.9347 32.6143 15.5465H33.2019C32.1526 12.7274 30.0958 10.3229 27.3674 8.87187C24.555 7.3794 21.239 6.96483 18.1328 7.79398V8.33292C21.1131 7.58669 24.3871 7.91835 27.1155 9.36935Z" fill="url(#paint5_linear)"/>
<path d="M7.01048 23.8792C9.78086 25.3302 13.013 25.7034 15.9932 24.8742V24.7498V24.6255C12.3413 24.1694 9.44505 21.3089 8.94135 17.6606H1.51172C2.5611 20.3139 4.49197 22.5526 7.01048 23.8792Z" fill="url(#paint6_linear)"/>
<path d="M6.75833 24.3353C4.07191 22.8843 1.97314 20.5212 0.923761 17.7021H0.881785H0.755859C1.30154 25.7863 7.80771 32.2122 15.9929 32.7511V25.4132C12.9287 26.2423 9.61265 25.8692 6.75833 24.3353Z" fill="url(#paint7_linear)"/>
<path d="M7.01025 23.8793C4.49173 22.5527 2.51889 20.314 1.51148 17.7021H0.923828C1.97321 20.5212 4.03 22.9258 6.7584 24.3768C9.57074 25.8692 12.8868 26.2838 15.993 25.4547V24.8743C13.0127 25.7034 9.78062 25.3303 7.01025 23.8793Z" fill="url(#paint8_linear)"/>
<path d="M25.6474 17.7021C26.319 23.5062 23.3807 30.2222 18.1758 32.5439V32.7511C26.361 32.2122 32.9091 25.7863 33.4128 17.7021H25.6474Z" fill="url(#paint9_linear)"/>
<path d="M18.1328 31.9219C20.3155 30.8855 22.2044 28.937 23.5056 26.3667C24.8489 23.672 25.4365 20.5212 25.1007 17.6606H18.1328V31.9219Z" fill="url(#paint10_linear)"/>
<path d="M25.6464 17.7021H25.1007C25.4365 20.5627 24.8908 23.7135 23.5057 26.4082C22.2044 28.9785 20.3575 30.8856 18.1328 31.9635V32.5439C23.3797 30.1808 26.276 23.5062 25.6464 17.7021Z" fill="url(#paint11_linear)"/>
<defs>
<linearGradient id="paint0_linear" x1="8.29233" y1="8.42103" x2="16.0072" y2="8.42103" gradientUnits="userSpaceOnUse">
<stop stop-color="#75C6BB"/>
<stop offset="1" stop-color="#30B6A6"/>
</linearGradient>
<linearGradient id="paint1_linear" x1="8.38135" y1="15.5808" x2="8.38135" y2="0.516255" gradientUnits="userSpaceOnUse">
<stop stop-color="#00A8A0"/>
<stop offset="1" stop-color="#009D91"/>
</linearGradient>
<linearGradient id="paint2_linear" x1="11.8808" y1="15.5805" x2="11.8808" y2="0.695884" gradientUnits="userSpaceOnUse">
<stop stop-color="#B5DED7"/>
<stop offset="0.5" stop-color="#87CCC2"/>
</linearGradient>
<linearGradient id="paint3_linear" x1="25.3894" y1="15.581" x2="25.3894" y2="7.96133" gradientUnits="userSpaceOnUse">
<stop stop-color="#EE7965"/>
<stop offset="1" stop-color="#F29B7E"/>
</linearGradient>
<linearGradient id="paint4_linear" x1="18.1403" y1="8.04859" x2="33.3931" y2="8.04859" gradientUnits="userSpaceOnUse">
<stop stop-color="#E94834"/>
<stop offset="1" stop-color="#E6001F"/>
</linearGradient>
<linearGradient id="paint5_linear" x1="18.1403" y1="11.5053" x2="33.2109" y2="11.5053" gradientUnits="userSpaceOnUse">
<stop stop-color="#F8C6B1"/>
<stop offset="0.5" stop-color="#F3A68B"/>
</linearGradient>
<linearGradient id="paint6_linear" x1="8.75892" y1="25.3072" x2="8.75892" y2="17.6876" gradientUnits="userSpaceOnUse">
<stop stop-color="#F29B7E"/>
<stop offset="1" stop-color="#EE7965"/>
</linearGradient>
<linearGradient id="paint7_linear" x1="0.754894" y1="25.2199" x2="16.0077" y2="25.2199" gradientUnits="userSpaceOnUse">
<stop stop-color="#E6001F"/>
<stop offset="1" stop-color="#E94834"/>
</linearGradient>
<linearGradient id="paint8_linear" x1="0.937134" y1="21.7632" x2="16.0078" y2="21.7632" gradientUnits="userSpaceOnUse">
<stop offset="0.5" stop-color="#F3A68B"/>
<stop offset="1" stop-color="#F8C6B1"/>
</linearGradient>
<linearGradient id="paint9_linear" x1="25.7676" y1="32.7522" x2="25.7676" y2="17.6876" gradientUnits="userSpaceOnUse">
<stop stop-color="#009D91"/>
<stop offset="1" stop-color="#00A8A0"/>
</linearGradient>
<linearGradient id="paint10_linear" x1="18.1402" y1="24.808" x2="25.1849" y2="24.808" gradientUnits="userSpaceOnUse">
<stop stop-color="#30B6A6"/>
<stop offset="1" stop-color="#75C6BB"/>
</linearGradient>
<linearGradient id="paint11_linear" x1="21.93" y1="32.5097" x2="21.93" y2="17.6876" gradientUnits="userSpaceOnUse">
<stop offset="0.5" stop-color="#87CCC2"/>
<stop offset="1" stop-color="#B5DED7"/>
</linearGradient>
</defs>
</svg>
